<mxfile host="app.diagrams.net" agent="Mozilla/5.0 (Windows NT 10.0; Win64; x64) AppleWebKit/537.36 (KHTML, like Gecko) Chrome/135.0.0.0 Safari/537.36" version="26.2.8">
  <diagram name="Page-1" id="lQyXhtulWhydKhAAKyxR">
    <mxGraphModel dx="1228" dy="667" grid="1" gridSize="10" guides="1" tooltips="1" connect="1" arrows="1" fold="1" page="1" pageScale="1" pageWidth="827" pageHeight="1169" math="0" shadow="0">
      <root>
        <mxCell id="0" />
        <mxCell id="1" parent="0" />
        <mxCell id="Bwm9MEA-qla6VM1aykDQ-68" value="CustomUser" style="shape=table;startSize=30;container=1;collapsible=0;childLayout=tableLayout;strokeColor=default;fontSize=16;" vertex="1" parent="1">
          <mxGeometry x="280" width="200" height="180" as="geometry" />
        </mxCell>
        <mxCell id="Bwm9MEA-qla6VM1aykDQ-69" value="" style="shape=tableRow;horizontal=0;startSize=0;swimlaneHead=0;swimlaneBody=0;strokeColor=inherit;top=0;left=0;bottom=0;right=0;collapsible=0;dropTarget=0;fillColor=none;points=[[0,0.5],[1,0.5]];portConstraint=eastwest;fontSize=16;" vertex="1" parent="Bwm9MEA-qla6VM1aykDQ-68">
          <mxGeometry y="30" width="200" height="30" as="geometry" />
        </mxCell>
        <mxCell id="Bwm9MEA-qla6VM1aykDQ-70" value="int" style="shape=partialRectangle;html=1;whiteSpace=wrap;connectable=0;strokeColor=inherit;overflow=hidden;fillColor=none;top=0;left=0;bottom=0;right=0;pointerEvents=1;fontSize=16;" vertex="1" parent="Bwm9MEA-qla6VM1aykDQ-69">
          <mxGeometry width="66" height="30" as="geometry">
            <mxRectangle width="66" height="30" as="alternateBounds" />
          </mxGeometry>
        </mxCell>
        <mxCell id="Bwm9MEA-qla6VM1aykDQ-71" value="id" style="shape=partialRectangle;html=1;whiteSpace=wrap;connectable=0;strokeColor=inherit;overflow=hidden;fillColor=none;top=0;left=0;bottom=0;right=0;pointerEvents=1;fontSize=16;" vertex="1" parent="Bwm9MEA-qla6VM1aykDQ-69">
          <mxGeometry x="66" width="100" height="30" as="geometry">
            <mxRectangle width="100" height="30" as="alternateBounds" />
          </mxGeometry>
        </mxCell>
        <mxCell id="Bwm9MEA-qla6VM1aykDQ-72" value="PK" style="shape=partialRectangle;html=1;whiteSpace=wrap;connectable=0;strokeColor=inherit;overflow=hidden;fillColor=none;top=0;left=0;bottom=0;right=0;pointerEvents=1;fontSize=16;" vertex="1" parent="Bwm9MEA-qla6VM1aykDQ-69">
          <mxGeometry x="166" width="34" height="30" as="geometry">
            <mxRectangle width="34" height="30" as="alternateBounds" />
          </mxGeometry>
        </mxCell>
        <mxCell id="Bwm9MEA-qla6VM1aykDQ-73" value="" style="shape=tableRow;horizontal=0;startSize=0;swimlaneHead=0;swimlaneBody=0;strokeColor=inherit;top=0;left=0;bottom=0;right=0;collapsible=0;dropTarget=0;fillColor=none;points=[[0,0.5],[1,0.5]];portConstraint=eastwest;fontSize=16;" vertex="1" parent="Bwm9MEA-qla6VM1aykDQ-68">
          <mxGeometry y="60" width="200" height="30" as="geometry" />
        </mxCell>
        <mxCell id="Bwm9MEA-qla6VM1aykDQ-74" value="string" style="shape=partialRectangle;html=1;whiteSpace=wrap;connectable=0;strokeColor=inherit;overflow=hidden;fillColor=none;top=0;left=0;bottom=0;right=0;pointerEvents=1;fontSize=16;" vertex="1" parent="Bwm9MEA-qla6VM1aykDQ-73">
          <mxGeometry width="66" height="30" as="geometry">
            <mxRectangle width="66" height="30" as="alternateBounds" />
          </mxGeometry>
        </mxCell>
        <mxCell id="Bwm9MEA-qla6VM1aykDQ-75" value="username" style="shape=partialRectangle;html=1;whiteSpace=wrap;connectable=0;strokeColor=inherit;overflow=hidden;fillColor=none;top=0;left=0;bottom=0;right=0;pointerEvents=1;fontSize=16;" vertex="1" parent="Bwm9MEA-qla6VM1aykDQ-73">
          <mxGeometry x="66" width="100" height="30" as="geometry">
            <mxRectangle width="100" height="30" as="alternateBounds" />
          </mxGeometry>
        </mxCell>
        <mxCell id="Bwm9MEA-qla6VM1aykDQ-76" value="" style="shape=partialRectangle;html=1;whiteSpace=wrap;connectable=0;strokeColor=inherit;overflow=hidden;fillColor=none;top=0;left=0;bottom=0;right=0;pointerEvents=1;fontSize=16;" vertex="1" parent="Bwm9MEA-qla6VM1aykDQ-73">
          <mxGeometry x="166" width="34" height="30" as="geometry">
            <mxRectangle width="34" height="30" as="alternateBounds" />
          </mxGeometry>
        </mxCell>
        <mxCell id="Bwm9MEA-qla6VM1aykDQ-77" value="" style="shape=tableRow;horizontal=0;startSize=0;swimlaneHead=0;swimlaneBody=0;strokeColor=inherit;top=0;left=0;bottom=0;right=0;collapsible=0;dropTarget=0;fillColor=none;points=[[0,0.5],[1,0.5]];portConstraint=eastwest;fontSize=16;" vertex="1" parent="Bwm9MEA-qla6VM1aykDQ-68">
          <mxGeometry y="90" width="200" height="30" as="geometry" />
        </mxCell>
        <mxCell id="Bwm9MEA-qla6VM1aykDQ-78" value="string" style="shape=partialRectangle;html=1;whiteSpace=wrap;connectable=0;strokeColor=inherit;overflow=hidden;fillColor=none;top=0;left=0;bottom=0;right=0;pointerEvents=1;fontSize=16;" vertex="1" parent="Bwm9MEA-qla6VM1aykDQ-77">
          <mxGeometry width="66" height="30" as="geometry">
            <mxRectangle width="66" height="30" as="alternateBounds" />
          </mxGeometry>
        </mxCell>
        <mxCell id="Bwm9MEA-qla6VM1aykDQ-79" value="email" style="shape=partialRectangle;html=1;whiteSpace=wrap;connectable=0;strokeColor=inherit;overflow=hidden;fillColor=none;top=0;left=0;bottom=0;right=0;pointerEvents=1;fontSize=16;" vertex="1" parent="Bwm9MEA-qla6VM1aykDQ-77">
          <mxGeometry x="66" width="100" height="30" as="geometry">
            <mxRectangle width="100" height="30" as="alternateBounds" />
          </mxGeometry>
        </mxCell>
        <mxCell id="Bwm9MEA-qla6VM1aykDQ-80" value="" style="shape=partialRectangle;html=1;whiteSpace=wrap;connectable=0;strokeColor=inherit;overflow=hidden;fillColor=none;top=0;left=0;bottom=0;right=0;pointerEvents=1;fontSize=16;" vertex="1" parent="Bwm9MEA-qla6VM1aykDQ-77">
          <mxGeometry x="166" width="34" height="30" as="geometry">
            <mxRectangle width="34" height="30" as="alternateBounds" />
          </mxGeometry>
        </mxCell>
        <mxCell id="Bwm9MEA-qla6VM1aykDQ-91" style="shape=tableRow;horizontal=0;startSize=0;swimlaneHead=0;swimlaneBody=0;strokeColor=inherit;top=0;left=0;bottom=0;right=0;collapsible=0;dropTarget=0;fillColor=none;points=[[0,0.5],[1,0.5]];portConstraint=eastwest;fontSize=16;" vertex="1" parent="Bwm9MEA-qla6VM1aykDQ-68">
          <mxGeometry y="120" width="200" height="30" as="geometry" />
        </mxCell>
        <mxCell id="Bwm9MEA-qla6VM1aykDQ-92" value="string" style="shape=partialRectangle;html=1;whiteSpace=wrap;connectable=0;strokeColor=inherit;overflow=hidden;fillColor=none;top=0;left=0;bottom=0;right=0;pointerEvents=1;fontSize=16;" vertex="1" parent="Bwm9MEA-qla6VM1aykDQ-91">
          <mxGeometry width="66" height="30" as="geometry">
            <mxRectangle width="66" height="30" as="alternateBounds" />
          </mxGeometry>
        </mxCell>
        <mxCell id="Bwm9MEA-qla6VM1aykDQ-93" value="password" style="shape=partialRectangle;html=1;whiteSpace=wrap;connectable=0;strokeColor=inherit;overflow=hidden;fillColor=none;top=0;left=0;bottom=0;right=0;pointerEvents=1;fontSize=16;" vertex="1" parent="Bwm9MEA-qla6VM1aykDQ-91">
          <mxGeometry x="66" width="100" height="30" as="geometry">
            <mxRectangle width="100" height="30" as="alternateBounds" />
          </mxGeometry>
        </mxCell>
        <mxCell id="Bwm9MEA-qla6VM1aykDQ-94" style="shape=partialRectangle;html=1;whiteSpace=wrap;connectable=0;strokeColor=inherit;overflow=hidden;fillColor=none;top=0;left=0;bottom=0;right=0;pointerEvents=1;fontSize=16;" vertex="1" parent="Bwm9MEA-qla6VM1aykDQ-91">
          <mxGeometry x="166" width="34" height="30" as="geometry">
            <mxRectangle width="34" height="30" as="alternateBounds" />
          </mxGeometry>
        </mxCell>
        <mxCell id="Bwm9MEA-qla6VM1aykDQ-95" style="shape=tableRow;horizontal=0;startSize=0;swimlaneHead=0;swimlaneBody=0;strokeColor=inherit;top=0;left=0;bottom=0;right=0;collapsible=0;dropTarget=0;fillColor=none;points=[[0,0.5],[1,0.5]];portConstraint=eastwest;fontSize=16;" vertex="1" parent="Bwm9MEA-qla6VM1aykDQ-68">
          <mxGeometry y="150" width="200" height="30" as="geometry" />
        </mxCell>
        <mxCell id="Bwm9MEA-qla6VM1aykDQ-96" value="string" style="shape=partialRectangle;html=1;whiteSpace=wrap;connectable=0;strokeColor=inherit;overflow=hidden;fillColor=none;top=0;left=0;bottom=0;right=0;pointerEvents=1;fontSize=16;" vertex="1" parent="Bwm9MEA-qla6VM1aykDQ-95">
          <mxGeometry width="66" height="30" as="geometry">
            <mxRectangle width="66" height="30" as="alternateBounds" />
          </mxGeometry>
        </mxCell>
        <mxCell id="Bwm9MEA-qla6VM1aykDQ-97" value="role" style="shape=partialRectangle;html=1;whiteSpace=wrap;connectable=0;strokeColor=inherit;overflow=hidden;fillColor=none;top=0;left=0;bottom=0;right=0;pointerEvents=1;fontSize=16;" vertex="1" parent="Bwm9MEA-qla6VM1aykDQ-95">
          <mxGeometry x="66" width="100" height="30" as="geometry">
            <mxRectangle width="100" height="30" as="alternateBounds" />
          </mxGeometry>
        </mxCell>
        <mxCell id="Bwm9MEA-qla6VM1aykDQ-98" style="shape=partialRectangle;html=1;whiteSpace=wrap;connectable=0;strokeColor=inherit;overflow=hidden;fillColor=none;top=0;left=0;bottom=0;right=0;pointerEvents=1;fontSize=16;" vertex="1" parent="Bwm9MEA-qla6VM1aykDQ-95">
          <mxGeometry x="166" width="34" height="30" as="geometry">
            <mxRectangle width="34" height="30" as="alternateBounds" />
          </mxGeometry>
        </mxCell>
        <mxCell id="Bwm9MEA-qla6VM1aykDQ-99" value="Invoice" style="shape=table;startSize=30;container=1;collapsible=0;childLayout=tableLayout;strokeColor=default;fontSize=16;" vertex="1" parent="1">
          <mxGeometry x="280" y="250" width="200" height="180" as="geometry" />
        </mxCell>
        <mxCell id="Bwm9MEA-qla6VM1aykDQ-100" value="" style="shape=tableRow;horizontal=0;startSize=0;swimlaneHead=0;swimlaneBody=0;strokeColor=inherit;top=0;left=0;bottom=0;right=0;collapsible=0;dropTarget=0;fillColor=none;points=[[0,0.5],[1,0.5]];portConstraint=eastwest;fontSize=16;" vertex="1" parent="Bwm9MEA-qla6VM1aykDQ-99">
          <mxGeometry y="30" width="200" height="30" as="geometry" />
        </mxCell>
        <mxCell id="Bwm9MEA-qla6VM1aykDQ-101" value="int" style="shape=partialRectangle;html=1;whiteSpace=wrap;connectable=0;strokeColor=inherit;overflow=hidden;fillColor=none;top=0;left=0;bottom=0;right=0;pointerEvents=1;fontSize=16;" vertex="1" parent="Bwm9MEA-qla6VM1aykDQ-100">
          <mxGeometry width="66" height="30" as="geometry">
            <mxRectangle width="66" height="30" as="alternateBounds" />
          </mxGeometry>
        </mxCell>
        <mxCell id="Bwm9MEA-qla6VM1aykDQ-102" value="id" style="shape=partialRectangle;html=1;whiteSpace=wrap;connectable=0;strokeColor=inherit;overflow=hidden;fillColor=none;top=0;left=0;bottom=0;right=0;pointerEvents=1;fontSize=16;" vertex="1" parent="Bwm9MEA-qla6VM1aykDQ-100">
          <mxGeometry x="66" width="100" height="30" as="geometry">
            <mxRectangle width="100" height="30" as="alternateBounds" />
          </mxGeometry>
        </mxCell>
        <mxCell id="Bwm9MEA-qla6VM1aykDQ-103" value="PK" style="shape=partialRectangle;html=1;whiteSpace=wrap;connectable=0;strokeColor=inherit;overflow=hidden;fillColor=none;top=0;left=0;bottom=0;right=0;pointerEvents=1;fontSize=16;" vertex="1" parent="Bwm9MEA-qla6VM1aykDQ-100">
          <mxGeometry x="166" width="34" height="30" as="geometry">
            <mxRectangle width="34" height="30" as="alternateBounds" />
          </mxGeometry>
        </mxCell>
        <mxCell id="Bwm9MEA-qla6VM1aykDQ-104" value="" style="shape=tableRow;horizontal=0;startSize=0;swimlaneHead=0;swimlaneBody=0;strokeColor=inherit;top=0;left=0;bottom=0;right=0;collapsible=0;dropTarget=0;fillColor=none;points=[[0,0.5],[1,0.5]];portConstraint=eastwest;fontSize=16;" vertex="1" parent="Bwm9MEA-qla6VM1aykDQ-99">
          <mxGeometry y="60" width="200" height="30" as="geometry" />
        </mxCell>
        <mxCell id="Bwm9MEA-qla6VM1aykDQ-105" value="int" style="shape=partialRectangle;html=1;whiteSpace=wrap;connectable=0;strokeColor=inherit;overflow=hidden;fillColor=none;top=0;left=0;bottom=0;right=0;pointerEvents=1;fontSize=16;" vertex="1" parent="Bwm9MEA-qla6VM1aykDQ-104">
          <mxGeometry width="66" height="30" as="geometry">
            <mxRectangle width="66" height="30" as="alternateBounds" />
          </mxGeometry>
        </mxCell>
        <mxCell id="Bwm9MEA-qla6VM1aykDQ-106" value="user_id" style="shape=partialRectangle;html=1;whiteSpace=wrap;connectable=0;strokeColor=inherit;overflow=hidden;fillColor=none;top=0;left=0;bottom=0;right=0;pointerEvents=1;fontSize=16;" vertex="1" parent="Bwm9MEA-qla6VM1aykDQ-104">
          <mxGeometry x="66" width="100" height="30" as="geometry">
            <mxRectangle width="100" height="30" as="alternateBounds" />
          </mxGeometry>
        </mxCell>
        <mxCell id="Bwm9MEA-qla6VM1aykDQ-107" value="FK" style="shape=partialRectangle;html=1;whiteSpace=wrap;connectable=0;strokeColor=inherit;overflow=hidden;fillColor=none;top=0;left=0;bottom=0;right=0;pointerEvents=1;fontSize=16;" vertex="1" parent="Bwm9MEA-qla6VM1aykDQ-104">
          <mxGeometry x="166" width="34" height="30" as="geometry">
            <mxRectangle width="34" height="30" as="alternateBounds" />
          </mxGeometry>
        </mxCell>
        <mxCell id="Bwm9MEA-qla6VM1aykDQ-108" value="" style="shape=tableRow;horizontal=0;startSize=0;swimlaneHead=0;swimlaneBody=0;strokeColor=inherit;top=0;left=0;bottom=0;right=0;collapsible=0;dropTarget=0;fillColor=none;points=[[0,0.5],[1,0.5]];portConstraint=eastwest;fontSize=16;" vertex="1" parent="Bwm9MEA-qla6VM1aykDQ-99">
          <mxGeometry y="90" width="200" height="30" as="geometry" />
        </mxCell>
        <mxCell id="Bwm9MEA-qla6VM1aykDQ-109" value="date" style="shape=partialRectangle;html=1;whiteSpace=wrap;connectable=0;strokeColor=inherit;overflow=hidden;fillColor=none;top=0;left=0;bottom=0;right=0;pointerEvents=1;fontSize=16;" vertex="1" parent="Bwm9MEA-qla6VM1aykDQ-108">
          <mxGeometry width="66" height="30" as="geometry">
            <mxRectangle width="66" height="30" as="alternateBounds" />
          </mxGeometry>
        </mxCell>
        <mxCell id="Bwm9MEA-qla6VM1aykDQ-110" value="issued_date" style="shape=partialRectangle;html=1;whiteSpace=wrap;connectable=0;strokeColor=inherit;overflow=hidden;fillColor=none;top=0;left=0;bottom=0;right=0;pointerEvents=1;fontSize=16;" vertex="1" parent="Bwm9MEA-qla6VM1aykDQ-108">
          <mxGeometry x="66" width="100" height="30" as="geometry">
            <mxRectangle width="100" height="30" as="alternateBounds" />
          </mxGeometry>
        </mxCell>
        <mxCell id="Bwm9MEA-qla6VM1aykDQ-111" value="" style="shape=partialRectangle;html=1;whiteSpace=wrap;connectable=0;strokeColor=inherit;overflow=hidden;fillColor=none;top=0;left=0;bottom=0;right=0;pointerEvents=1;fontSize=16;" vertex="1" parent="Bwm9MEA-qla6VM1aykDQ-108">
          <mxGeometry x="166" width="34" height="30" as="geometry">
            <mxRectangle width="34" height="30" as="alternateBounds" />
          </mxGeometry>
        </mxCell>
        <mxCell id="Bwm9MEA-qla6VM1aykDQ-112" style="shape=tableRow;horizontal=0;startSize=0;swimlaneHead=0;swimlaneBody=0;strokeColor=inherit;top=0;left=0;bottom=0;right=0;collapsible=0;dropTarget=0;fillColor=none;points=[[0,0.5],[1,0.5]];portConstraint=eastwest;fontSize=16;" vertex="1" parent="Bwm9MEA-qla6VM1aykDQ-99">
          <mxGeometry y="120" width="200" height="30" as="geometry" />
        </mxCell>
        <mxCell id="Bwm9MEA-qla6VM1aykDQ-113" value="date" style="shape=partialRectangle;html=1;whiteSpace=wrap;connectable=0;strokeColor=inherit;overflow=hidden;fillColor=none;top=0;left=0;bottom=0;right=0;pointerEvents=1;fontSize=16;" vertex="1" parent="Bwm9MEA-qla6VM1aykDQ-112">
          <mxGeometry width="66" height="30" as="geometry">
            <mxRectangle width="66" height="30" as="alternateBounds" />
          </mxGeometry>
        </mxCell>
        <mxCell id="Bwm9MEA-qla6VM1aykDQ-114" value="due_date" style="shape=partialRectangle;html=1;whiteSpace=wrap;connectable=0;strokeColor=inherit;overflow=hidden;fillColor=none;top=0;left=0;bottom=0;right=0;pointerEvents=1;fontSize=16;" vertex="1" parent="Bwm9MEA-qla6VM1aykDQ-112">
          <mxGeometry x="66" width="100" height="30" as="geometry">
            <mxRectangle width="100" height="30" as="alternateBounds" />
          </mxGeometry>
        </mxCell>
        <mxCell id="Bwm9MEA-qla6VM1aykDQ-115" style="shape=partialRectangle;html=1;whiteSpace=wrap;connectable=0;strokeColor=inherit;overflow=hidden;fillColor=none;top=0;left=0;bottom=0;right=0;pointerEvents=1;fontSize=16;" vertex="1" parent="Bwm9MEA-qla6VM1aykDQ-112">
          <mxGeometry x="166" width="34" height="30" as="geometry">
            <mxRectangle width="34" height="30" as="alternateBounds" />
          </mxGeometry>
        </mxCell>
        <mxCell id="Bwm9MEA-qla6VM1aykDQ-116" style="shape=tableRow;horizontal=0;startSize=0;swimlaneHead=0;swimlaneBody=0;strokeColor=inherit;top=0;left=0;bottom=0;right=0;collapsible=0;dropTarget=0;fillColor=none;points=[[0,0.5],[1,0.5]];portConstraint=eastwest;fontSize=16;" vertex="1" parent="Bwm9MEA-qla6VM1aykDQ-99">
          <mxGeometry y="150" width="200" height="30" as="geometry" />
        </mxCell>
        <mxCell id="Bwm9MEA-qla6VM1aykDQ-117" value="boolean" style="shape=partialRectangle;html=1;whiteSpace=wrap;connectable=0;strokeColor=inherit;overflow=hidden;fillColor=none;top=0;left=0;bottom=0;right=0;pointerEvents=1;fontSize=16;" vertex="1" parent="Bwm9MEA-qla6VM1aykDQ-116">
          <mxGeometry width="66" height="30" as="geometry">
            <mxRectangle width="66" height="30" as="alternateBounds" />
          </mxGeometry>
        </mxCell>
        <mxCell id="Bwm9MEA-qla6VM1aykDQ-118" value="paid" style="shape=partialRectangle;html=1;whiteSpace=wrap;connectable=0;strokeColor=inherit;overflow=hidden;fillColor=none;top=0;left=0;bottom=0;right=0;pointerEvents=1;fontSize=16;" vertex="1" parent="Bwm9MEA-qla6VM1aykDQ-116">
          <mxGeometry x="66" width="100" height="30" as="geometry">
            <mxRectangle width="100" height="30" as="alternateBounds" />
          </mxGeometry>
        </mxCell>
        <mxCell id="Bwm9MEA-qla6VM1aykDQ-119" style="shape=partialRectangle;html=1;whiteSpace=wrap;connectable=0;strokeColor=inherit;overflow=hidden;fillColor=none;top=0;left=0;bottom=0;right=0;pointerEvents=1;fontSize=16;" vertex="1" parent="Bwm9MEA-qla6VM1aykDQ-116">
          <mxGeometry x="166" width="34" height="30" as="geometry">
            <mxRectangle width="34" height="30" as="alternateBounds" />
          </mxGeometry>
        </mxCell>
        <mxCell id="Bwm9MEA-qla6VM1aykDQ-173" value="InvoiceItem" style="shape=table;startSize=30;container=1;collapsible=0;childLayout=tableLayout;strokeColor=default;fontSize=16;" vertex="1" parent="Bwm9MEA-qla6VM1aykDQ-116">
          <mxGeometry x="200" width="NaN" height="30" as="geometry">
            <mxRectangle width="NaN" height="30" as="alternateBounds" />
          </mxGeometry>
        </mxCell>
        <mxCell id="Bwm9MEA-qla6VM1aykDQ-174" value="" style="shape=tableRow;horizontal=0;startSize=0;swimlaneHead=0;swimlaneBody=0;strokeColor=inherit;top=0;left=0;bottom=0;right=0;collapsible=0;dropTarget=0;fillColor=none;points=[[0,0.5],[1,0.5]];portConstraint=eastwest;fontSize=16;" vertex="1" visible="0" parent="Bwm9MEA-qla6VM1aykDQ-173">
          <mxGeometry y="30" width="200" height="30" as="geometry" />
        </mxCell>
        <mxCell id="Bwm9MEA-qla6VM1aykDQ-175" value="int" style="shape=partialRectangle;html=1;whiteSpace=wrap;connectable=0;strokeColor=inherit;overflow=hidden;fillColor=none;top=0;left=0;bottom=0;right=0;pointerEvents=1;fontSize=16;" vertex="1" parent="Bwm9MEA-qla6VM1aykDQ-174">
          <mxGeometry width="66" height="30" as="geometry">
            <mxRectangle width="66" height="30" as="alternateBounds" />
          </mxGeometry>
        </mxCell>
        <mxCell id="Bwm9MEA-qla6VM1aykDQ-176" value="id" style="shape=partialRectangle;html=1;whiteSpace=wrap;connectable=0;strokeColor=inherit;overflow=hidden;fillColor=none;top=0;left=0;bottom=0;right=0;pointerEvents=1;fontSize=16;" vertex="1" parent="Bwm9MEA-qla6VM1aykDQ-174">
          <mxGeometry x="66" width="100" height="30" as="geometry">
            <mxRectangle width="100" height="30" as="alternateBounds" />
          </mxGeometry>
        </mxCell>
        <mxCell id="Bwm9MEA-qla6VM1aykDQ-177" value="PK" style="shape=partialRectangle;html=1;whiteSpace=wrap;connectable=0;strokeColor=inherit;overflow=hidden;fillColor=none;top=0;left=0;bottom=0;right=0;pointerEvents=1;fontSize=16;" vertex="1" parent="Bwm9MEA-qla6VM1aykDQ-174">
          <mxGeometry x="166" width="34" height="30" as="geometry">
            <mxRectangle width="34" height="30" as="alternateBounds" />
          </mxGeometry>
        </mxCell>
        <mxCell id="Bwm9MEA-qla6VM1aykDQ-178" value="" style="shape=tableRow;horizontal=0;startSize=0;swimlaneHead=0;swimlaneBody=0;strokeColor=inherit;top=0;left=0;bottom=0;right=0;collapsible=0;dropTarget=0;fillColor=none;points=[[0,0.5],[1,0.5]];portConstraint=eastwest;fontSize=16;" vertex="1" visible="0" parent="Bwm9MEA-qla6VM1aykDQ-173">
          <mxGeometry y="60" width="200" height="30" as="geometry" />
        </mxCell>
        <mxCell id="Bwm9MEA-qla6VM1aykDQ-179" value="int" style="shape=partialRectangle;html=1;whiteSpace=wrap;connectable=0;strokeColor=inherit;overflow=hidden;fillColor=none;top=0;left=0;bottom=0;right=0;pointerEvents=1;fontSize=16;" vertex="1" parent="Bwm9MEA-qla6VM1aykDQ-178">
          <mxGeometry width="66" height="30" as="geometry">
            <mxRectangle width="66" height="30" as="alternateBounds" />
          </mxGeometry>
        </mxCell>
        <mxCell id="Bwm9MEA-qla6VM1aykDQ-180" value="invoice_id" style="shape=partialRectangle;html=1;whiteSpace=wrap;connectable=0;strokeColor=inherit;overflow=hidden;fillColor=none;top=0;left=0;bottom=0;right=0;pointerEvents=1;fontSize=16;" vertex="1" parent="Bwm9MEA-qla6VM1aykDQ-178">
          <mxGeometry x="66" width="100" height="30" as="geometry">
            <mxRectangle width="100" height="30" as="alternateBounds" />
          </mxGeometry>
        </mxCell>
        <mxCell id="Bwm9MEA-qla6VM1aykDQ-181" value="FK" style="shape=partialRectangle;html=1;whiteSpace=wrap;connectable=0;strokeColor=inherit;overflow=hidden;fillColor=none;top=0;left=0;bottom=0;right=0;pointerEvents=1;fontSize=16;" vertex="1" parent="Bwm9MEA-qla6VM1aykDQ-178">
          <mxGeometry x="166" width="34" height="30" as="geometry">
            <mxRectangle width="34" height="30" as="alternateBounds" />
          </mxGeometry>
        </mxCell>
        <mxCell id="Bwm9MEA-qla6VM1aykDQ-182" value="" style="shape=tableRow;horizontal=0;startSize=0;swimlaneHead=0;swimlaneBody=0;strokeColor=inherit;top=0;left=0;bottom=0;right=0;collapsible=0;dropTarget=0;fillColor=none;points=[[0,0.5],[1,0.5]];portConstraint=eastwest;fontSize=16;" vertex="1" visible="0" parent="Bwm9MEA-qla6VM1aykDQ-173">
          <mxGeometry y="90" width="200" height="30" as="geometry" />
        </mxCell>
        <mxCell id="Bwm9MEA-qla6VM1aykDQ-183" value="string" style="shape=partialRectangle;html=1;whiteSpace=wrap;connectable=0;strokeColor=inherit;overflow=hidden;fillColor=none;top=0;left=0;bottom=0;right=0;pointerEvents=1;fontSize=16;" vertex="1" parent="Bwm9MEA-qla6VM1aykDQ-182">
          <mxGeometry width="66" height="30" as="geometry">
            <mxRectangle width="66" height="30" as="alternateBounds" />
          </mxGeometry>
        </mxCell>
        <mxCell id="Bwm9MEA-qla6VM1aykDQ-184" value="description" style="shape=partialRectangle;html=1;whiteSpace=wrap;connectable=0;strokeColor=inherit;overflow=hidden;fillColor=none;top=0;left=0;bottom=0;right=0;pointerEvents=1;fontSize=16;" vertex="1" parent="Bwm9MEA-qla6VM1aykDQ-182">
          <mxGeometry x="66" width="100" height="30" as="geometry">
            <mxRectangle width="100" height="30" as="alternateBounds" />
          </mxGeometry>
        </mxCell>
        <mxCell id="Bwm9MEA-qla6VM1aykDQ-185" value="" style="shape=partialRectangle;html=1;whiteSpace=wrap;connectable=0;strokeColor=inherit;overflow=hidden;fillColor=none;top=0;left=0;bottom=0;right=0;pointerEvents=1;fontSize=16;" vertex="1" parent="Bwm9MEA-qla6VM1aykDQ-182">
          <mxGeometry x="166" width="34" height="30" as="geometry">
            <mxRectangle width="34" height="30" as="alternateBounds" />
          </mxGeometry>
        </mxCell>
        <mxCell id="Bwm9MEA-qla6VM1aykDQ-186" style="shape=tableRow;horizontal=0;startSize=0;swimlaneHead=0;swimlaneBody=0;strokeColor=inherit;top=0;left=0;bottom=0;right=0;collapsible=0;dropTarget=0;fillColor=none;points=[[0,0.5],[1,0.5]];portConstraint=eastwest;fontSize=16;" vertex="1" visible="0" parent="Bwm9MEA-qla6VM1aykDQ-173">
          <mxGeometry y="120" width="200" height="30" as="geometry" />
        </mxCell>
        <mxCell id="Bwm9MEA-qla6VM1aykDQ-187" value="int" style="shape=partialRectangle;html=1;whiteSpace=wrap;connectable=0;strokeColor=inherit;overflow=hidden;fillColor=none;top=0;left=0;bottom=0;right=0;pointerEvents=1;fontSize=16;" vertex="1" parent="Bwm9MEA-qla6VM1aykDQ-186">
          <mxGeometry width="66" height="30" as="geometry">
            <mxRectangle width="66" height="30" as="alternateBounds" />
          </mxGeometry>
        </mxCell>
        <mxCell id="Bwm9MEA-qla6VM1aykDQ-188" value="quantity" style="shape=partialRectangle;html=1;whiteSpace=wrap;connectable=0;strokeColor=inherit;overflow=hidden;fillColor=none;top=0;left=0;bottom=0;right=0;pointerEvents=1;fontSize=16;" vertex="1" parent="Bwm9MEA-qla6VM1aykDQ-186">
          <mxGeometry x="66" width="100" height="30" as="geometry">
            <mxRectangle width="100" height="30" as="alternateBounds" />
          </mxGeometry>
        </mxCell>
        <mxCell id="Bwm9MEA-qla6VM1aykDQ-189" style="shape=partialRectangle;html=1;whiteSpace=wrap;connectable=0;strokeColor=inherit;overflow=hidden;fillColor=none;top=0;left=0;bottom=0;right=0;pointerEvents=1;fontSize=16;" vertex="1" parent="Bwm9MEA-qla6VM1aykDQ-186">
          <mxGeometry x="166" width="34" height="30" as="geometry">
            <mxRectangle width="34" height="30" as="alternateBounds" />
          </mxGeometry>
        </mxCell>
        <mxCell id="Bwm9MEA-qla6VM1aykDQ-190" style="shape=tableRow;horizontal=0;startSize=0;swimlaneHead=0;swimlaneBody=0;strokeColor=inherit;top=0;left=0;bottom=0;right=0;collapsible=0;dropTarget=0;fillColor=none;points=[[0,0.5],[1,0.5]];portConstraint=eastwest;fontSize=16;" vertex="1" visible="0" parent="Bwm9MEA-qla6VM1aykDQ-173">
          <mxGeometry y="150" width="200" height="30" as="geometry" />
        </mxCell>
        <mxCell id="Bwm9MEA-qla6VM1aykDQ-191" value="decimal" style="shape=partialRectangle;html=1;whiteSpace=wrap;connectable=0;strokeColor=inherit;overflow=hidden;fillColor=none;top=0;left=0;bottom=0;right=0;pointerEvents=1;fontSize=16;" vertex="1" parent="Bwm9MEA-qla6VM1aykDQ-190">
          <mxGeometry width="66" height="30" as="geometry">
            <mxRectangle width="66" height="30" as="alternateBounds" />
          </mxGeometry>
        </mxCell>
        <mxCell id="Bwm9MEA-qla6VM1aykDQ-192" value="unit_price" style="shape=partialRectangle;html=1;whiteSpace=wrap;connectable=0;strokeColor=inherit;overflow=hidden;fillColor=none;top=0;left=0;bottom=0;right=0;pointerEvents=1;fontSize=16;" vertex="1" parent="Bwm9MEA-qla6VM1aykDQ-190">
          <mxGeometry x="66" width="100" height="30" as="geometry">
            <mxRectangle width="100" height="30" as="alternateBounds" />
          </mxGeometry>
        </mxCell>
        <mxCell id="Bwm9MEA-qla6VM1aykDQ-193" style="shape=partialRectangle;html=1;whiteSpace=wrap;connectable=0;strokeColor=inherit;overflow=hidden;fillColor=none;top=0;left=0;bottom=0;right=0;pointerEvents=1;fontSize=16;" vertex="1" parent="Bwm9MEA-qla6VM1aykDQ-190">
          <mxGeometry x="166" width="34" height="30" as="geometry">
            <mxRectangle width="34" height="30" as="alternateBounds" />
          </mxGeometry>
        </mxCell>
        <mxCell id="Bwm9MEA-qla6VM1aykDQ-194" value="" style="edgeStyle=orthogonalEdgeStyle;rounded=0;orthogonalLoop=1;jettySize=auto;html=1;" edge="1" parent="1" source="Bwm9MEA-qla6VM1aykDQ-141" target="Bwm9MEA-qla6VM1aykDQ-173">
          <mxGeometry relative="1" as="geometry" />
        </mxCell>
        <mxCell id="Bwm9MEA-qla6VM1aykDQ-141" value="InvoiceItem" style="shape=table;startSize=30;container=1;collapsible=0;childLayout=tableLayout;strokeColor=default;fontSize=16;" vertex="1" parent="1">
          <mxGeometry x="280" y="494" width="200" height="180" as="geometry" />
        </mxCell>
        <mxCell id="Bwm9MEA-qla6VM1aykDQ-142" value="" style="shape=tableRow;horizontal=0;startSize=0;swimlaneHead=0;swimlaneBody=0;strokeColor=inherit;top=0;left=0;bottom=0;right=0;collapsible=0;dropTarget=0;fillColor=none;points=[[0,0.5],[1,0.5]];portConstraint=eastwest;fontSize=16;" vertex="1" parent="Bwm9MEA-qla6VM1aykDQ-141">
          <mxGeometry y="30" width="200" height="30" as="geometry" />
        </mxCell>
        <mxCell id="Bwm9MEA-qla6VM1aykDQ-143" value="int" style="shape=partialRectangle;html=1;whiteSpace=wrap;connectable=0;strokeColor=inherit;overflow=hidden;fillColor=none;top=0;left=0;bottom=0;right=0;pointerEvents=1;fontSize=16;" vertex="1" parent="Bwm9MEA-qla6VM1aykDQ-142">
          <mxGeometry width="66" height="30" as="geometry">
            <mxRectangle width="66" height="30" as="alternateBounds" />
          </mxGeometry>
        </mxCell>
        <mxCell id="Bwm9MEA-qla6VM1aykDQ-144" value="id" style="shape=partialRectangle;html=1;whiteSpace=wrap;connectable=0;strokeColor=inherit;overflow=hidden;fillColor=none;top=0;left=0;bottom=0;right=0;pointerEvents=1;fontSize=16;" vertex="1" parent="Bwm9MEA-qla6VM1aykDQ-142">
          <mxGeometry x="66" width="100" height="30" as="geometry">
            <mxRectangle width="100" height="30" as="alternateBounds" />
          </mxGeometry>
        </mxCell>
        <mxCell id="Bwm9MEA-qla6VM1aykDQ-145" value="PK" style="shape=partialRectangle;html=1;whiteSpace=wrap;connectable=0;strokeColor=inherit;overflow=hidden;fillColor=none;top=0;left=0;bottom=0;right=0;pointerEvents=1;fontSize=16;" vertex="1" parent="Bwm9MEA-qla6VM1aykDQ-142">
          <mxGeometry x="166" width="34" height="30" as="geometry">
            <mxRectangle width="34" height="30" as="alternateBounds" />
          </mxGeometry>
        </mxCell>
        <mxCell id="Bwm9MEA-qla6VM1aykDQ-146" value="" style="shape=tableRow;horizontal=0;startSize=0;swimlaneHead=0;swimlaneBody=0;strokeColor=inherit;top=0;left=0;bottom=0;right=0;collapsible=0;dropTarget=0;fillColor=none;points=[[0,0.5],[1,0.5]];portConstraint=eastwest;fontSize=16;" vertex="1" parent="Bwm9MEA-qla6VM1aykDQ-141">
          <mxGeometry y="60" width="200" height="30" as="geometry" />
        </mxCell>
        <mxCell id="Bwm9MEA-qla6VM1aykDQ-147" value="int" style="shape=partialRectangle;html=1;whiteSpace=wrap;connectable=0;strokeColor=inherit;overflow=hidden;fillColor=none;top=0;left=0;bottom=0;right=0;pointerEvents=1;fontSize=16;" vertex="1" parent="Bwm9MEA-qla6VM1aykDQ-146">
          <mxGeometry width="66" height="30" as="geometry">
            <mxRectangle width="66" height="30" as="alternateBounds" />
          </mxGeometry>
        </mxCell>
        <mxCell id="Bwm9MEA-qla6VM1aykDQ-148" value="invoice_id" style="shape=partialRectangle;html=1;whiteSpace=wrap;connectable=0;strokeColor=inherit;overflow=hidden;fillColor=none;top=0;left=0;bottom=0;right=0;pointerEvents=1;fontSize=16;" vertex="1" parent="Bwm9MEA-qla6VM1aykDQ-146">
          <mxGeometry x="66" width="100" height="30" as="geometry">
            <mxRectangle width="100" height="30" as="alternateBounds" />
          </mxGeometry>
        </mxCell>
        <mxCell id="Bwm9MEA-qla6VM1aykDQ-149" value="FK" style="shape=partialRectangle;html=1;whiteSpace=wrap;connectable=0;strokeColor=inherit;overflow=hidden;fillColor=none;top=0;left=0;bottom=0;right=0;pointerEvents=1;fontSize=16;" vertex="1" parent="Bwm9MEA-qla6VM1aykDQ-146">
          <mxGeometry x="166" width="34" height="30" as="geometry">
            <mxRectangle width="34" height="30" as="alternateBounds" />
          </mxGeometry>
        </mxCell>
        <mxCell id="Bwm9MEA-qla6VM1aykDQ-150" value="" style="shape=tableRow;horizontal=0;startSize=0;swimlaneHead=0;swimlaneBody=0;strokeColor=inherit;top=0;left=0;bottom=0;right=0;collapsible=0;dropTarget=0;fillColor=none;points=[[0,0.5],[1,0.5]];portConstraint=eastwest;fontSize=16;" vertex="1" parent="Bwm9MEA-qla6VM1aykDQ-141">
          <mxGeometry y="90" width="200" height="30" as="geometry" />
        </mxCell>
        <mxCell id="Bwm9MEA-qla6VM1aykDQ-151" value="string" style="shape=partialRectangle;html=1;whiteSpace=wrap;connectable=0;strokeColor=inherit;overflow=hidden;fillColor=none;top=0;left=0;bottom=0;right=0;pointerEvents=1;fontSize=16;" vertex="1" parent="Bwm9MEA-qla6VM1aykDQ-150">
          <mxGeometry width="66" height="30" as="geometry">
            <mxRectangle width="66" height="30" as="alternateBounds" />
          </mxGeometry>
        </mxCell>
        <mxCell id="Bwm9MEA-qla6VM1aykDQ-152" value="description" style="shape=partialRectangle;html=1;whiteSpace=wrap;connectable=0;strokeColor=inherit;overflow=hidden;fillColor=none;top=0;left=0;bottom=0;right=0;pointerEvents=1;fontSize=16;" vertex="1" parent="Bwm9MEA-qla6VM1aykDQ-150">
          <mxGeometry x="66" width="100" height="30" as="geometry">
            <mxRectangle width="100" height="30" as="alternateBounds" />
          </mxGeometry>
        </mxCell>
        <mxCell id="Bwm9MEA-qla6VM1aykDQ-153" value="" style="shape=partialRectangle;html=1;whiteSpace=wrap;connectable=0;strokeColor=inherit;overflow=hidden;fillColor=none;top=0;left=0;bottom=0;right=0;pointerEvents=1;fontSize=16;" vertex="1" parent="Bwm9MEA-qla6VM1aykDQ-150">
          <mxGeometry x="166" width="34" height="30" as="geometry">
            <mxRectangle width="34" height="30" as="alternateBounds" />
          </mxGeometry>
        </mxCell>
        <mxCell id="Bwm9MEA-qla6VM1aykDQ-154" style="shape=tableRow;horizontal=0;startSize=0;swimlaneHead=0;swimlaneBody=0;strokeColor=inherit;top=0;left=0;bottom=0;right=0;collapsible=0;dropTarget=0;fillColor=none;points=[[0,0.5],[1,0.5]];portConstraint=eastwest;fontSize=16;" vertex="1" parent="Bwm9MEA-qla6VM1aykDQ-141">
          <mxGeometry y="120" width="200" height="30" as="geometry" />
        </mxCell>
        <mxCell id="Bwm9MEA-qla6VM1aykDQ-155" value="int" style="shape=partialRectangle;html=1;whiteSpace=wrap;connectable=0;strokeColor=inherit;overflow=hidden;fillColor=none;top=0;left=0;bottom=0;right=0;pointerEvents=1;fontSize=16;" vertex="1" parent="Bwm9MEA-qla6VM1aykDQ-154">
          <mxGeometry width="66" height="30" as="geometry">
            <mxRectangle width="66" height="30" as="alternateBounds" />
          </mxGeometry>
        </mxCell>
        <mxCell id="Bwm9MEA-qla6VM1aykDQ-156" value="quantity" style="shape=partialRectangle;html=1;whiteSpace=wrap;connectable=0;strokeColor=inherit;overflow=hidden;fillColor=none;top=0;left=0;bottom=0;right=0;pointerEvents=1;fontSize=16;" vertex="1" parent="Bwm9MEA-qla6VM1aykDQ-154">
          <mxGeometry x="66" width="100" height="30" as="geometry">
            <mxRectangle width="100" height="30" as="alternateBounds" />
          </mxGeometry>
        </mxCell>
        <mxCell id="Bwm9MEA-qla6VM1aykDQ-157" style="shape=partialRectangle;html=1;whiteSpace=wrap;connectable=0;strokeColor=inherit;overflow=hidden;fillColor=none;top=0;left=0;bottom=0;right=0;pointerEvents=1;fontSize=16;" vertex="1" parent="Bwm9MEA-qla6VM1aykDQ-154">
          <mxGeometry x="166" width="34" height="30" as="geometry">
            <mxRectangle width="34" height="30" as="alternateBounds" />
          </mxGeometry>
        </mxCell>
        <mxCell id="Bwm9MEA-qla6VM1aykDQ-158" style="shape=tableRow;horizontal=0;startSize=0;swimlaneHead=0;swimlaneBody=0;strokeColor=inherit;top=0;left=0;bottom=0;right=0;collapsible=0;dropTarget=0;fillColor=none;points=[[0,0.5],[1,0.5]];portConstraint=eastwest;fontSize=16;" vertex="1" parent="Bwm9MEA-qla6VM1aykDQ-141">
          <mxGeometry y="150" width="200" height="30" as="geometry" />
        </mxCell>
        <mxCell id="Bwm9MEA-qla6VM1aykDQ-159" value="decimal" style="shape=partialRectangle;html=1;whiteSpace=wrap;connectable=0;strokeColor=inherit;overflow=hidden;fillColor=none;top=0;left=0;bottom=0;right=0;pointerEvents=1;fontSize=16;" vertex="1" parent="Bwm9MEA-qla6VM1aykDQ-158">
          <mxGeometry width="66" height="30" as="geometry">
            <mxRectangle width="66" height="30" as="alternateBounds" />
          </mxGeometry>
        </mxCell>
        <mxCell id="Bwm9MEA-qla6VM1aykDQ-160" value="unit_price" style="shape=partialRectangle;html=1;whiteSpace=wrap;connectable=0;strokeColor=inherit;overflow=hidden;fillColor=none;top=0;left=0;bottom=0;right=0;pointerEvents=1;fontSize=16;" vertex="1" parent="Bwm9MEA-qla6VM1aykDQ-158">
          <mxGeometry x="66" width="100" height="30" as="geometry">
            <mxRectangle width="100" height="30" as="alternateBounds" />
          </mxGeometry>
        </mxCell>
        <mxCell id="Bwm9MEA-qla6VM1aykDQ-161" style="shape=partialRectangle;html=1;whiteSpace=wrap;connectable=0;strokeColor=inherit;overflow=hidden;fillColor=none;top=0;left=0;bottom=0;right=0;pointerEvents=1;fontSize=16;" vertex="1" parent="Bwm9MEA-qla6VM1aykDQ-158">
          <mxGeometry x="166" width="34" height="30" as="geometry">
            <mxRectangle width="34" height="30" as="alternateBounds" />
          </mxGeometry>
        </mxCell>
        <mxCell id="Bwm9MEA-qla6VM1aykDQ-169" value="" style="fontSize=12;html=1;endArrow=ERzeroToMany;startArrow=ERmandOne;rounded=0;entryX=0.5;entryY=0;entryDx=0;entryDy=0;" edge="1" parent="1" source="Bwm9MEA-qla6VM1aykDQ-95" target="Bwm9MEA-qla6VM1aykDQ-99">
          <mxGeometry width="100" height="100" relative="1" as="geometry">
            <mxPoint x="70" y="310" as="sourcePoint" />
            <mxPoint x="170" y="210" as="targetPoint" />
          </mxGeometry>
        </mxCell>
        <mxCell id="Bwm9MEA-qla6VM1aykDQ-172" value="&lt;font style=&quot;font-size: 14px;&quot;&gt;has&lt;/font&gt;" style="edgeLabel;html=1;align=center;verticalAlign=middle;resizable=0;points=[];" vertex="1" connectable="0" parent="Bwm9MEA-qla6VM1aykDQ-169">
          <mxGeometry x="-0.037" relative="1" as="geometry">
            <mxPoint as="offset" />
          </mxGeometry>
        </mxCell>
        <mxCell id="Bwm9MEA-qla6VM1aykDQ-170" value="" style="fontSize=12;html=1;endArrow=ERzeroToMany;startArrow=ERmandOne;rounded=0;exitX=0.495;exitY=1.053;exitDx=0;exitDy=0;exitPerimeter=0;" edge="1" parent="1" source="Bwm9MEA-qla6VM1aykDQ-116">
          <mxGeometry width="100" height="100" relative="1" as="geometry">
            <mxPoint x="100" y="350" as="sourcePoint" />
            <mxPoint x="380" y="490" as="targetPoint" />
          </mxGeometry>
        </mxCell>
        <mxCell id="Bwm9MEA-qla6VM1aykDQ-171" value="&lt;font style=&quot;font-size: 14px;&quot;&gt;contains&lt;/font&gt;" style="edgeLabel;html=1;align=center;verticalAlign=middle;resizable=0;points=[];" vertex="1" connectable="0" parent="Bwm9MEA-qla6VM1aykDQ-170">
          <mxGeometry x="-0.0732" y="1" relative="1" as="geometry">
            <mxPoint as="offset" />
          </mxGeometry>
        </mxCell>
      </root>
    </mxGraphModel>
  </diagram>
</mxfile>
